<svg width="28" height="28" viewBox="0 0 28 28" fill="none" xmlns="http://www.w3.org/2000/svg">
<g id="Frame">
<path id="Vector" d="M8.75 1.75C8.98206 1.75 9.20462 1.84219 9.36872 2.00628C9.53281 2.17038 9.625 2.39294 9.625 2.625V3.5H13.125V2.625C13.125 2.39294 13.2172 2.17038 13.3813 2.00628C13.5454 1.84219 13.7679 1.75 14 1.75C14.2321 1.75 14.4546 1.84219 14.6187 2.00628C14.7828 2.17038 14.875 2.39294 14.875 2.625V3.5H18.375V2.625C18.375 2.39294 18.4672 2.17038 18.6313 2.00628C18.7954 1.84219 19.0179 1.75 19.25 1.75C19.4821 1.75 19.7046 1.84219 19.8687 2.00628C20.0328 2.17038 20.125 2.39294 20.125 2.625V3.5C20.8212 3.5 21.4889 3.77656 21.9812 4.26884C22.4734 4.76113 22.75 5.42881 22.75 6.125V10.563C22.1227 10.6723 21.526 10.9145 21 11.2735V6.125C21 5.89294 20.9078 5.67038 20.7437 5.50628C20.5796 5.34219 20.3571 5.25 20.125 5.25H7.875C7.64294 5.25 7.42038 5.34219 7.25628 5.50628C7.09219 5.67038 7 5.89294 7 6.125V23.625C7 23.8571 7.09219 24.0796 7.25628 24.2437C7.42038 24.4078 7.64294 24.5 7.875 24.5H10.5822V24.5035C10.4342 25.0834 10.4759 25.6955 10.7012 26.25H7.875C7.17881 26.25 6.51113 25.9734 6.01884 25.4812C5.52656 24.9889 5.25 24.3212 5.25 23.625V6.125C5.25 5.42881 5.52656 4.76113 6.01884 4.26884C6.51113 3.77656 7.17881 3.5 7.875 3.5V2.625C7.875 2.39294 7.96719 2.17038 8.13128 2.00628C8.29538 1.84219 8.51794 1.75 8.75 1.75ZM17.5 14C17.6873 14 17.8605 14.0595 18.004 14.1592L16.4115 15.75H10.5C10.2679 15.75 10.0454 15.6578 9.88128 15.4937C9.71719 15.3296 9.625 15.1071 9.625 14.875C9.625 14.6429 9.71719 14.4204 9.88128 14.2563C10.0454 14.0922 10.2679 14 10.5 14H17.5ZM12.243 20.0113C12.2154 19.8006 12.1121 19.6072 11.9524 19.4672C11.7927 19.3271 11.5874 19.2499 11.375 19.25H10.5C10.2679 19.25 10.0454 19.3422 9.88128 19.5063C9.71719 19.6704 9.625 19.8929 9.625 20.125C9.625 20.3571 9.71719 20.5796 9.88128 20.7437C10.0454 20.9078 10.2679 21 10.5 21H11.375C11.4683 21.0002 11.5611 20.9854 11.6498 20.9563C11.8201 20.6249 12.0178 20.3099 12.243 20.0113ZM10.5 8.75C10.2679 8.75 10.0454 8.84219 9.88128 9.00628C9.71719 9.17038 9.625 9.39294 9.625 9.625C9.625 9.85706 9.71719 10.0796 9.88128 10.2437C10.0454 10.4078 10.2679 10.5 10.5 10.5H17.5C17.7321 10.5 17.9546 10.4078 18.1187 10.2437C18.2828 10.0796 18.375 9.85706 18.375 9.625C18.375 9.39294 18.2828 9.17038 18.1187 9.00628C17.9546 8.84219 17.7321 8.75 17.5 8.75H10.5ZM21.5915 13.0462C22.1037 12.5341 22.7983 12.2464 23.5226 12.2464C24.2469 12.2464 24.9416 12.5341 25.4538 13.0462C25.9659 13.5584 26.2536 14.2531 26.2536 14.9774C26.2536 15.7017 25.9659 16.3963 25.4538 16.9085L17.948 24.4125C17.3241 25.034 16.5443 25.4759 15.6905 25.6917L13.5712 26.222C13.3923 26.2668 13.2049 26.2646 13.0271 26.2154C12.8493 26.1662 12.6873 26.0718 12.5569 25.9414C12.4265 25.8109 12.3321 25.6489 12.2829 25.4712C12.2337 25.2934 12.2314 25.1059 12.2762 24.927L12.8082 22.8095C13.0217 21.9538 13.4627 21.1733 14.0857 20.552L21.5915 13.0462Z" fill="#00004B"/>
</g>
</svg>
